<?xml version="1.0" encoding="iso-8859-1"?>
<!-- Uploaded to: SVG Repo, www.svgrepo.com, Generator: SVG Repo Mixer Tools -->
<svg fill="#000000" height="800px" width="800px" version="1.1" id="Layer_1" xmlns="http://www.w3.org/2000/svg" xmlns:xlink="http://www.w3.org/1999/xlink" 
	 viewBox="0 0 512 512" xml:space="preserve">
<g>
	<g>
		<path d="M475.106,137.481h-67.403V98.94c0-5.241-3.19-8.866-8.43-8.866h-56.889c-5.241,0-10.533,3.625-10.533,8.866v38.542
			H180.148V98.94c0-5.241-3.19-8.866-8.43-8.866h-56.889c-5.241,0-10.532,3.625-10.532,8.866v38.542H38.995
			C18.069,137.481,0,153.866,0,174.764v208.658c0,20.889,18.069,38.505,38.995,38.505h436.111c20.926,0,36.894-17.616,36.894-38.505
			V174.764C512,153.866,496.032,137.481,475.106,137.481z M350.815,109.037h37.926v28.444h-37.926V109.037z M123.259,109.037h37.926
			v28.444h-37.926V109.037z M493.037,383.421c0,10.435-7.468,19.542-17.931,19.542H38.995c-10.463,0-20.032-9.106-20.032-19.542
			V174.764c0-10.444,9.569-18.319,20.032-18.319h75.833h56.889h170.667h56.889h75.833c10.463,0,17.931,7.875,17.931,18.319V383.421z
			"/>
	</g>
</g>
<g>
	<g>
		<path d="M143.273,184.273c-52.278,0-94.815,42.537-94.815,94.815s42.537,94.815,94.815,94.815
			c52.278,0,94.815-42.537,94.815-94.815S195.551,184.273,143.273,184.273z M143.273,354.94c-41.824,0-75.852-34.028-75.852-75.852
			c0-41.824,34.028-75.852,75.852-75.852c41.824,0,75.852,34.028,75.852,75.852C219.125,320.912,185.097,354.94,143.273,354.94z"/>
	</g>
</g>
<g>
	<g>
		<path d="M370.829,184.273c-52.278,0-94.815,42.537-94.815,94.815s42.537,94.815,94.815,94.815
			c52.278,0,94.815-42.537,94.815-94.815S423.106,184.273,370.829,184.273z M370.829,354.94c-41.824,0-75.852-34.028-75.852-75.852
			c0-41.824,34.028-75.852,75.852-75.852c41.824,0,75.852,34.028,75.852,75.852C446.681,320.912,412.653,354.94,370.829,354.94z"/>
	</g>
</g>
<g>
	<g>
		<path d="M143.273,222.199c-23.63,0-28.444,75.093-28.444,75.852c0,15.685,12.759,28.444,28.444,28.444
			c15.685,0,28.444-12.759,28.444-28.444C171.718,297.292,166.903,222.199,143.273,222.199z M143.273,307.532
			c-5.232,0-9.482-4.25-9.482-9.481c0-9.13,4.75-36.472,9.482-50.435c4.732,13.963,9.482,41.306,9.482,50.435
			C152.755,303.282,148.505,307.532,143.273,307.532z"/>
	</g>
</g>
<g>
	<g>
		<path d="M373.023,251.912c-13.592-7.833-31-3.148-38.852,10.417c-3.796,6.583-4.805,14.25-2.843,21.583
			c1.972,7.342,6.676,13.472,13.259,17.278c5.5,3.176,21.982,9.944,36.824,14.583c12.287,3.833,21.454,5.759,28.259,5.759
			c7.491,0,12.102-2.343,14.824-7.056C436.523,293.653,373.69,252.292,373.023,251.912z M354.069,284.764
			c-4.528-2.611-6.093-8.426-3.472-12.954c1.75-3.037,4.954-4.741,8.232-4.741c1.611,0,3.231,0.407,4.713,1.269
			c7.908,4.565,29.213,22.361,38.944,33.435C388.032,298.884,361.977,289.329,354.069,284.764z"/>
	</g>
</g>
</svg>